XTRAmin.ufo
<glyph name="dollar" format="1">
  <advance width="897"/>
  <unicode hex="0024"/>
  <outline>
    <contour>
      <point x="77" y="406" type="line" smooth="yes"/>
      <point x="77" y="215"/>
      <point x="277" y="0"/>
      <point x="453" y="0" type="qcurve" smooth="yes"/>
      <point x="625" y="0"/>
      <point x="812" y="225"/>
      <point x="812" y="394" type="qcurve" smooth="yes"/>
      <point x="812" y="559"/>
      <point x="650" y="767"/>
      <point x="469" y="839" type="qcurve" smooth="yes"/>
      <point x="378" y="874"/>
      <point x="282" y="980"/>
      <point x="282" y="1078" type="qcurve" smooth="yes"/>
      <point x="282" y="1188"/>
      <point x="363" y="1298"/>
      <point x="439" y="1298" type="qcurve" smooth="yes"/>
      <point x="517" y="1298"/>
      <point x="609" y="1182"/>
      <point x="609" y="1057" type="qcurve" smooth="yes"/>
      <point x="609" y="1043" type="line"/>
      <point x="796" y="1043" type="line"/>
      <point x="796" y="1058" type="line" smooth="yes"/>
      <point x="796" y="1202"/>
      <point x="625" y="1456"/>
      <point x="444" y="1456" type="qcurve" smooth="yes"/>
      <point x="280" y="1456"/>
      <point x="98" y="1215"/>
      <point x="98" y="1066" type="qcurve" smooth="yes"/>
      <point x="98" y="921"/>
      <point x="249" y="725"/>
      <point x="425" y="653" type="qcurve" smooth="yes"/>
      <point x="536" y="607"/>
      <point x="628" y="498"/>
      <point x="628" y="382" type="qcurve" smooth="yes"/>
      <point x="628" y="269"/>
      <point x="526" y="153"/>
      <point x="445" y="153" type="qcurve" smooth="yes"/>
      <point x="369" y="153"/>
      <point x="264" y="272"/>
      <point x="264" y="411" type="qcurve" smooth="yes"/>
      <point x="264" y="418" type="line"/>
      <point x="77" y="418" type="line"/>
    </contour>
    <contour>
      <point x="372" y="744" type="line"/>
      <point x="530" y="744" type="line"/>
      <point x="530" y="1564" type="line"/>
      <point x="364" y="1564" type="line"/>
      <point x="364" y="1357" type="line"/>
      <point x="372" y="1356" type="line"/>
    </contour>
    <contour>
      <point x="364" y="-158" type="line"/>
      <point x="530" y="-158" type="line"/>
      <point x="530" y="100" type="line"/>
      <point x="523" y="100" type="line"/>
      <point x="523" y="715" type="line"/>
      <point x="364" y="715" type="line"/>
    </contour>
  </outline>
</glyph>
<glyph name="ampersand" format="1">
  <advance width="951"/>
  <unicode hex="0026"/>
  <outline>
    <contour>
      <point x="102" y="392" type="qcurve" smooth="yes"/>
      <point x="102" y="226"/>
      <point x="283" y="-20"/>
      <point x="451" y="-20" type="qcurve" smooth="yes"/>
      <point x="546" y="-20"/>
      <point x="697" y="63"/>
      <point x="750" y="147" type="qcurve" smooth="yes"/>
      <point x="758" y="160"/>
      <point x="765" y="184"/>
      <point x="769" y="189" type="qcurve"/>
      <point x="833" y="285"/>
      <point x="895" y="547"/>
      <point x="895" y="672" type="qcurve"/>
      <point x="719" y="672" type="line"/>
      <point x="719" y="416"/>
      <point x="541" y="132"/>
      <point x="451" y="132" type="qcurve" smooth="yes"/>
      <point x="377" y="132"/>
      <point x="291" y="271"/>
      <point x="291" y="392" type="qcurve" smooth="yes"/>
      <point x="291" y="446"/>
      <point x="321" y="565"/>
      <point x="372" y="621" type="qcurve" smooth="yes"/>
      <point x="568" y="836" type="line" smooth="yes"/>
      <point x="645" y="921"/>
      <point x="726" y="1081"/>
      <point x="726" y="1169" type="qcurve" smooth="yes"/>
      <point x="726" y="1278"/>
      <point x="591" y="1476"/>
      <point x="460" y="1476" type="qcurve" smooth="yes"/>
      <point x="327" y="1476"/>
      <point x="181" y="1279"/>
      <point x="181" y="1123" type="qcurve" smooth="yes"/>
      <point x="181" y="1029"/>
      <point x="285" y="814"/>
      <point x="362" y="682" type="qcurve" smooth="yes"/>
      <point x="747" y="0" type="line"/>
      <point x="944" y="0" type="line"/>
      <point x="482" y="820" type="line" smooth="yes"/>
      <point x="432" y="905"/>
      <point x="371" y="1043"/>
      <point x="371" y="1129" type="qcurve" smooth="yes"/>
      <point x="371" y="1223"/>
      <point x="424" y="1325"/>
      <point x="459" y="1325" type="qcurve" smooth="yes"/>
      <point x="493" y="1325"/>
      <point x="546" y="1242"/>
      <point x="546" y="1169" type="qcurve" smooth="yes"/>
      <point x="546" y="1078"/>
      <point x="505" y="1003"/>
      <point x="482" y="978" type="qcurve" smooth="yes"/>
      <point x="318" y="806" type="line" smooth="yes"/>
      <point x="226" y="712"/>
      <point x="102" y="514"/>
    </contour>
  </outline>
</glyph>
<glyph name="plus" format="1">
  <advance width="898"/>
  <unicode hex="002B"/>
  <outline>
    <contour>
      <point x="86" y="591" type="line"/>
      <point x="812" y="591" type="line"/>
      <point x="812" y="757" type="line"/>
      <point x="86" y="757" type="line"/>
    </contour>
    <contour>
      <point x="355" y="146" type="line"/>
      <point x="543" y="146" type="line"/>
      <point x="543" y="1206" type="line"/>
      <point x="355" y="1206" type="line"/>
    </contour>
  </outline>
</glyph>
<glyph name="zero" format="1">
  <advance width="916"/>
  <unicode hex="0030"/>
  <outline>
    <contour>
      <point x="110" y="420" type="line" smooth="yes"/>
      <point x="110" y="214"/>
      <point x="296" y="-20"/>
      <point x="459" y="-20" type="qcurve" smooth="yes"/>
      <point x="622" y="-20"/>
      <point x="806" y="214"/>
      <point x="806" y="420" type="qcurve" smooth="yes"/>
      <point x="806" y="1027" type="line" smooth="yes"/>
      <point x="806" y="1233"/>
      <point x="614" y="1469"/>
      <point x="457" y="1469" type="qcurve" smooth="yes"/>
      <point x="300" y="1469"/>
      <point x="110" y="1233"/>
      <point x="110" y="1027" type="qcurve" smooth="yes"/>
    </contour>
    <contour>
      <point x="305" y="408" type="qcurve" smooth="yes"/>
      <point x="305" y="1039" type="line" smooth="yes"/>
      <point x="305" y="1164"/>
      <point x="376" y="1313"/>
      <point x="457" y="1313" type="qcurve" smooth="yes"/>
      <point x="538" y="1313"/>
      <point x="611" y="1169"/>
      <point x="611" y="1039" type="qcurve" smooth="yes"/>
      <point x="611" y="408" type="line" smooth="yes"/>
      <point x="611" y="283"/>
      <point x="543" y="134"/>
      <point x="459" y="134" type="qcurve" smooth="yes"/>
      <point x="375" y="134"/>
      <point x="305" y="278"/>
    </contour>
  </outline>
</glyph>
<glyph name="seven" format="1">
  <advance width="904"/>
  <unicode hex="0037"/>
  <outline>
    <contour>
      <point x="230" y="0" type="line"/>
      <point x="414" y="0" type="line"/>
      <point x="800" y="1374" type="line"/>
      <point x="800" y="1456" type="line"/>
      <point x="78" y="1456" type="line"/>
      <point x="78" y="1304" type="line"/>
      <point x="610" y="1304" type="line"/>
    </contour>
  </outline>
</glyph>
<glyph name="A" format="1">
  <advance width="916"/>
  <unicode hex="0041"/>
  <outline>
    <contour>
      <point x="0" y="0" type="line"/>
      <point x="183" y="0" type="line"/>
      <point x="447" y="1062" type="line" smooth="yes"/>
      <point x="454" y="1091"/>
      <point x="454" y="1132"/>
      <point x="454" y="1135" type="qcurve"/>
      <point x="461" y="1135" type="line"/>
      <point x="461" y="1132"/>
      <point x="463" y="1092"/>
      <point x="470" y="1062" type="qcurve" smooth="yes"/>
      <point x="730" y="0" type="line"/>
      <point x="916" y="0" type="line"/>
      <point x="541" y="1466" type="line"/>
      <point x="374" y="1466" type="line"/>
    </contour>
    <contour>
      <point x="162" y="381" type="line"/>
      <point x="767" y="381" type="line"/>
      <point x="726" y="539" type="line"/>
      <point x="202" y="539" type="line"/>
    </contour>
  </outline>
</glyph>
<glyph name="B" format="1">
  <advance width="1003"/>
  <unicode hex="0042"/>
  <outline>
    <contour>
      <point x="170" y="0" type="line"/>
      <point x="546" y="0" type="line" smooth="yes"/>
      <point x="715" y="0"/>
      <point x="903" y="229"/>
      <point x="903" y="420" type="qcurve" smooth="yes"/>
      <point x="903" y="578"/>
      <point x="787" y="741"/>
      <point x="731" y="762" type="qcurve"/>
      <point x="731" y="773" type="line"/>
      <point x="793" y="802"/>
      <point x="877" y="950"/>
      <point x="877" y="1068" type="qcurve" smooth="yes"/>
      <point x="877" y="1259"/>
      <point x="696" y="1456"/>
      <point x="524" y="1456" type="qcurve" smooth="yes"/>
      <point x="170" y="1456" type="line"/>
    </contour>
    <contour>
      <point x="364" y="836" type="line"/>
      <point x="364" y="1298" type="line"/>
      <point x="524" y="1298" type="line" smooth="yes"/>
      <point x="598" y="1298"/>
      <point x="682" y="1201"/>
      <point x="682" y="1070" type="qcurve" smooth="yes"/>
      <point x="682" y="948"/>
      <point x="589" y="836"/>
      <point x="528" y="836" type="qcurve" smooth="yes"/>
    </contour>
    <contour>
      <point x="364" y="157" type="line"/>
      <point x="364" y="681" type="line"/>
      <point x="552" y="681" type="line" smooth="yes"/>
      <point x="628" y="681"/>
      <point x="709" y="554"/>
      <point x="709" y="418" type="qcurve" smooth="yes"/>
      <point x="709" y="286"/>
      <point x="616" y="157"/>
      <point x="546" y="157" type="qcurve" smooth="yes"/>
    </contour>
  </outline>
</glyph>
<glyph name="D" format="1">
  <advance width="1081"/>
  <unicode hex="0044"/>
  <outline>
    <contour>
      <point x="170" y="0" type="line"/>
      <point x="481" y="0" type="line" smooth="yes"/>
      <point x="707" y="0"/>
      <point x="966" y="384"/>
      <point x="966" y="668" type="qcurve" smooth="yes"/>
      <point x="966" y="798" type="line" smooth="yes"/>
      <point x="966" y="1119"/>
      <point x="715" y="1456"/>
      <point x="493" y="1456" type="qcurve" smooth="yes"/>
      <point x="170" y="1456" type="line"/>
    </contour>
    <contour>
      <point x="364" y="157" type="line"/>
      <point x="364" y="1298" type="line"/>
      <point x="493" y="1298" type="line" smooth="yes"/>
      <point x="618" y="1298"/>
      <point x="772" y="1061"/>
      <point x="772" y="800" type="qcurve" smooth="yes"/>
      <point x="772" y="668" type="line" smooth="yes"/>
      <point x="772" y="431"/>
      <point x="615" y="157"/>
      <point x="481" y="157" type="qcurve" smooth="yes"/>
    </contour>
  </outline>
</glyph>
<glyph name="E" format="1">
  <advance width="926"/>
  <unicode hex="0045"/>
  <outline>
    <contour>
      <point x="170" y="0" type="line"/>
      <point x="858" y="0" type="line"/>
      <point x="858" y="157" type="line"/>
      <point x="364" y="157" type="line"/>
      <point x="364" y="673" type="line"/>
      <point x="789" y="673" type="line"/>
      <point x="789" y="830" type="line"/>
      <point x="364" y="830" type="line"/>
      <point x="364" y="1298" type="line"/>
      <point x="852" y="1298" type="line"/>
      <point x="852" y="1456" type="line"/>
      <point x="170" y="1456" type="line"/>
    </contour>
  </outline>
</glyph>
<glyph name="G" format="1">
  <advance width="1045"/>
  <unicode hex="0047"/>
  <outline>
    <contour>
      <point x="115" y="652" type="line" smooth="yes"/>
      <point x="115" y="362"/>
      <point x="363" y="-19"/>
      <point x="565" y="-19" type="qcurve" smooth="yes"/>
      <point x="723" y="-19"/>
      <point x="915" y="83"/>
      <point x="965" y="148" type="qcurve"/>
      <point x="965" y="725" type="line"/>
      <point x="530" y="725" type="line"/>
      <point x="530" y="569" type="line"/>
      <point x="775" y="569" type="line"/>
      <point x="775" y="191" type="line"/>
      <point x="743" y="165"/>
      <point x="662" y="138"/>
      <point x="585" y="138" type="qcurve" smooth="yes"/>
      <point x="458" y="138"/>
      <point x="312" y="405"/>
      <point x="312" y="652" type="qcurve" smooth="yes"/>
      <point x="312" y="811" type="line" smooth="yes"/>
      <point x="312" y="1048"/>
      <point x="452" y="1318"/>
      <point x="575" y="1318" type="qcurve" smooth="yes"/>
      <point x="668" y="1318"/>
      <point x="773" y="1182"/>
      <point x="773" y="1048" type="qcurve" smooth="yes"/>
      <point x="773" y="1013" type="line"/>
      <point x="962" y="1013" type="line"/>
      <point x="962" y="1032" type="line" smooth="yes"/>
      <point x="962" y="1233"/>
      <point x="751" y="1476"/>
      <point x="563" y="1476" type="qcurve" smooth="yes"/>
      <point x="351" y="1476"/>
      <point x="115" y="1094"/>
      <point x="115" y="809" type="qcurve" smooth="yes"/>
    </contour>
  </outline>
</glyph>
<glyph name="H" format="1">
  <advance width="1159"/>
  <unicode hex="0048"/>
  <outline>
    <contour>
      <point x="170" y="0" type="line"/>
      <point x="364" y="0" type="line"/>
      <point x="364" y="673" type="line"/>
      <point x="795" y="673" type="line"/>
      <point x="795" y="0" type="line"/>
      <point x="989" y="0" type="line"/>
      <point x="989" y="1456" type="line"/>
      <point x="795" y="1456" type="line"/>
      <point x="795" y="830" type="line"/>
      <point x="364" y="830" type="line"/>
      <point x="364" y="1456" type="line"/>
      <point x="170" y="1456" type="line"/>
    </contour>
  </outline>
</glyph>
<glyph name="N" format="1">
  <advance width="1160"/>
  <unicode hex="004E"/>
  <outline>
    <contour>
      <point x="170" y="0" type="line"/>
      <point x="360" y="0" type="line"/>
      <point x="360" y="783" type="line" smooth="yes"/>
      <point x="360" y="833"/>
      <point x="348" y="1027"/>
      <point x="342" y="1077" type="qcurve"/>
      <point x="348" y="1077" type="line"/>
      <point x="361" y="1029"/>
      <point x="395" y="928"/>
      <point x="435" y="837" type="qcurve" smooth="yes"/>
      <point x="803" y="0" type="line"/>
      <point x="990" y="0" type="line"/>
      <point x="990" y="1456" type="line"/>
      <point x="800" y="1456" type="line"/>
      <point x="800" y="624" type="line" smooth="yes"/>
      <point x="800" y="521"/>
      <point x="802" y="447"/>
      <point x="804" y="416" type="qcurve"/>
      <point x="795" y="416" type="line"/>
      <point x="780" y="480"/>
      <point x="737" y="596"/>
      <point x="708" y="661" type="qcurve" smooth="yes"/>
      <point x="356" y="1456" type="line"/>
      <point x="170" y="1456" type="line"/>
    </contour>
  </outline>
</glyph>
<glyph name="S" format="1">
  <advance width="938"/>
  <unicode hex="0053"/>
  <outline>
    <contour>
      <point x="88" y="373" type="line" smooth="yes"/>
      <point x="88" y="174"/>
      <point x="299" y="-20"/>
      <point x="484" y="-20" type="qcurve" smooth="yes"/>
      <point x="664" y="-20"/>
      <point x="863" y="195"/>
      <point x="863" y="370" type="qcurve" smooth="yes"/>
      <point x="863" y="525"/>
      <point x="691" y="729"/>
      <point x="536" y="825" type="qcurve" smooth="yes"/>
      <point x="408" y="904"/>
      <point x="304" y="1014"/>
      <point x="304" y="1104" type="qcurve" smooth="yes"/>
      <point x="304" y="1206"/>
      <point x="396" y="1311"/>
      <point x="479" y="1311" type="qcurve" smooth="yes"/>
      <point x="562" y="1311"/>
      <point x="650" y="1207"/>
      <point x="650" y="1100" type="qcurve" smooth="yes"/>
      <point x="650" y="1056" type="line"/>
      <point x="844" y="1056" type="line"/>
      <point x="844" y="1101" type="line" smooth="yes"/>
      <point x="844" y="1272"/>
      <point x="659" y="1476"/>
      <point x="486" y="1476" type="qcurve" smooth="yes"/>
      <point x="302" y="1476"/>
      <point x="109" y="1263"/>
      <point x="109" y="1102" type="qcurve" smooth="yes"/>
      <point x="109" y="961"/>
      <point x="275" y="756"/>
      <point x="423" y="666" type="qcurve" smooth="yes"/>
      <point x="560" y="583"/>
      <point x="668" y="454"/>
      <point x="668" y="351" type="qcurve" smooth="yes"/>
      <point x="668" y="250"/>
      <point x="565" y="140"/>
      <point x="480" y="140" type="qcurve" smooth="yes"/>
      <point x="380" y="140"/>
      <point x="282" y="254"/>
      <point x="282" y="378" type="qcurve" smooth="yes"/>
      <point x="282" y="405" type="line"/>
      <point x="88" y="405" type="line"/>
    </contour>
  </outline>
</glyph>
<glyph name="T" format="1">
  <advance width="872"/>
  <unicode hex="0054"/>
  <outline>
    <contour>
      <point x="24" y="1298" type="line"/>
      <point x="340" y="1298" type="line"/>
      <point x="340" y="0" type="line"/>
      <point x="533" y="0" type="line"/>
      <point x="533" y="1298" type="line"/>
      <point x="848" y="1298" type="line"/>
      <point x="848" y="1456" type="line"/>
      <point x="24" y="1456" type="line"/>
    </contour>
  </outline>
</glyph>
<glyph name="U" format="1">
  <advance width="1040"/>
  <unicode hex="0055"/>
  <outline>
    <contour>
      <point x="132" y="433" type="line" smooth="yes"/>
      <point x="132" y="214"/>
      <point x="345" y="-20"/>
      <point x="519" y="-20" type="qcurve" smooth="yes"/>
      <point x="693" y="-20"/>
      <point x="908" y="221"/>
      <point x="908" y="433" type="qcurve" smooth="yes"/>
      <point x="908" y="1456" type="line"/>
      <point x="714" y="1456" type="line"/>
      <point x="714" y="461" type="line" smooth="yes"/>
      <point x="714" y="278"/>
      <point x="611" y="147"/>
      <point x="519" y="147" type="qcurve" smooth="yes"/>
      <point x="427" y="147"/>
      <point x="326" y="278"/>
      <point x="326" y="461" type="qcurve" smooth="yes"/>
      <point x="326" y="1456" type="line"/>
      <point x="132" y="1456" type="line"/>
    </contour>
  </outline>
</glyph>
<glyph name="V" format="1">
  <advance width="952"/>
  <unicode hex="0056"/>
  <outline>
    <contour>
      <point x="28" y="1456" type="line"/>
      <point x="391" y="-10" type="line"/>
      <point x="560" y="-10" type="line"/>
      <point x="924" y="1456" type="line"/>
      <point x="739" y="1456" type="line"/>
      <point x="517" y="546" type="line" smooth="yes"/>
      <point x="499" y="471"/>
      <point x="482" y="324"/>
      <point x="482" y="309" type="qcurve"/>
      <point x="473" y="309" type="line"/>
      <point x="473" y="324"/>
      <point x="453" y="465"/>
      <point x="434" y="546" type="qcurve" smooth="yes"/>
      <point x="215" y="1456" type="line"/>
    </contour>
  </outline>
</glyph>
<glyph name="Y" format="1">
  <advance width="890"/>
  <unicode hex="0059"/>
  <outline>
    <contour>
      <point x="16" y="1456" type="line"/>
      <point x="348" y="563" type="line"/>
      <point x="348" y="0" type="line"/>
      <point x="542" y="0" type="line"/>
      <point x="542" y="563" type="line"/>
      <point x="874" y="1456" type="line"/>
      <point x="681" y="1456" type="line"/>
      <point x="541" y="1068" type="line" smooth="yes"/>
      <point x="507" y="972"/>
      <point x="450" y="805"/>
      <point x="450" y="783" type="qcurve"/>
      <point x="444" y="783" type="line"/>
      <point x="444" y="805"/>
      <point x="390" y="973"/>
      <point x="355" y="1067" type="qcurve" smooth="yes"/>
      <point x="211" y="1456" type="line"/>
    </contour>
  </outline>
</glyph>
<glyph name="Z" format="1">
  <advance width="851"/>
  <unicode hex="005A"/>
  <outline>
    <contour>
      <point x="36" y="0" type="line"/>
      <point x="815" y="0" type="line"/>
      <point x="815" y="157" type="line"/>
      <point x="246" y="157" type="line"/>
      <point x="794" y="1333" type="line"/>
      <point x="794" y="1456" type="line"/>
      <point x="45" y="1456" type="line"/>
      <point x="45" y="1298" type="line"/>
      <point x="583" y="1298" type="line"/>
      <point x="36" y="127" type="line"/>
    </contour>
  </outline>
</glyph>
<glyph name="backslash" format="1">
  <advance width="378"/>
  <unicode hex="005C"/>
  <outline>
    <contour>
      <point x="480" y="-125" type="line"/>
      <point x="69" y="1456" type="line"/>
      <point x="-102" y="1456" type="line"/>
      <point x="307" y="-125" type="line"/>
    </contour>
  </outline>
</glyph>
<glyph name="bracketright" format="1">
  <advance width="560"/>
  <unicode hex="005D"/>
  <outline>
    <contour>
      <point x="413" y="-312" type="line"/>
      <point x="413" y="1456" type="line"/>
      <point x="28" y="1456" type="line"/>
      <point x="28" y="1296" type="line"/>
      <point x="224" y="1296" type="line"/>
      <point x="224" y="-152" type="line"/>
      <point x="28" y="-152" type="line"/>
      <point x="28" y="-312" type="line"/>
    </contour>
  </outline>
</glyph>
<glyph name="asciicircum" format="1">
  <advance width="839"/>
  <unicode hex="005E"/>
  <outline>
    <contour>
      <point x="22" y="729" type="line"/>
      <point x="199" y="729" type="line"/>
      <point x="419" y="1211" type="line"/>
      <point x="637" y="729" type="line"/>
      <point x="815" y="729" type="line"/>
      <point x="500" y="1456" type="line"/>
      <point x="338" y="1456" type="line"/>
    </contour>
  </outline>
</glyph>
<glyph name="a" format="1">
  <advance width="862"/>
  <unicode hex="0061"/>
  <outline>
    <contour>
      <point x="91" y="301" type="qcurve" smooth="yes"/>
      <point x="91" y="163"/>
      <point x="232" y="-13"/>
      <point x="353" y="-12" type="qcurve" smooth="yes"/>
      <point x="428" y="-13"/>
      <point x="542" y="80"/>
      <point x="567" y="124" type="qcurve"/>
      <point x="567" y="93"/>
      <point x="578" y="37"/>
      <point x="594" y="0" type="qcurve"/>
      <point x="760" y="0" type="line"/>
      <point x="760" y="-7" type="line"/>
      <point x="746" y="40"/>
      <point x="735" y="153"/>
      <point x="735" y="236" type="qcurve" smooth="yes"/>
      <point x="735" y="730" type="line" smooth="yes"/>
      <point x="735" y="897"/>
      <point x="591" y="1072"/>
      <point x="429" y="1072" type="qcurve" smooth="yes"/>
      <point x="281" y="1072"/>
      <point x="132" y="901"/>
      <point x="132" y="769" type="qcurve" smooth="yes"/>
      <point x="132" y="742" type="line"/>
      <point x="321" y="742" type="line"/>
      <point x="321" y="771" type="line" smooth="yes"/>
      <point x="321" y="850"/>
      <point x="378" y="923"/>
      <point x="437" y="923" type="qcurve" smooth="yes"/>
      <point x="496" y="923"/>
      <point x="551" y="844"/>
      <point x="551" y="732" type="qcurve" smooth="yes"/>
      <point x="551" y="648" type="line"/>
      <point x="414" y="648" type="line" smooth="yes"/>
      <point x="262" y="648"/>
      <point x="91" y="454"/>
    </contour>
    <contour>
      <point x="281" y="316" type="qcurve" smooth="yes"/>
      <point x="281" y="426"/>
      <point x="369" y="516"/>
      <point x="446" y="516" type="qcurve" smooth="yes"/>
      <point x="551" y="516" type="line"/>
      <point x="551" y="287" type="line"/>
      <point x="538" y="221"/>
      <point x="455" y="139"/>
      <point x="398" y="139" type="qcurve" smooth="yes"/>
      <point x="335" y="139"/>
      <point x="281" y="223"/>
    </contour>
  </outline>
</glyph>
<glyph name="b" format="1">
  <advance width="917"/>
  <unicode hex="0062"/>
  <outline>
    <contour>
      <point x="148" y="0" type="line"/>
      <point x="312" y="0" type="line"/>
      <point x="321" y="129" type="line"/>
      <point x="342" y="75"/>
      <point x="450" y="-15"/>
      <point x="537" y="-15" type="qcurve" smooth="yes"/>
      <point x="678" y="-15"/>
      <point x="832" y="313"/>
      <point x="832" y="512" type="qcurve" smooth="yes"/>
      <point x="832" y="571" type="line" smooth="yes"/>
      <point x="832" y="795"/>
      <point x="677" y="1072"/>
      <point x="536" y="1072" type="qcurve" smooth="yes"/>
      <point x="451" y="1072"/>
      <point x="351" y="993"/>
      <point x="334" y="942" type="qcurve"/>
      <point x="334" y="1536" type="line"/>
      <point x="148" y="1536" type="line"/>
    </contour>
    <contour>
      <point x="334" y="304" type="qcurve"/>
      <point x="334" y="767" type="line"/>
      <point x="348" y="827"/>
      <point x="428" y="916"/>
      <point x="489" y="916" type="qcurve" smooth="yes"/>
      <point x="567" y="916"/>
      <point x="642" y="745"/>
      <point x="642" y="571" type="qcurve" smooth="yes"/>
      <point x="642" y="512" type="line" smooth="yes"/>
      <point x="642" y="335"/>
      <point x="563" y="142"/>
      <point x="491" y="142" type="qcurve" smooth="yes"/>
      <point x="439" y="142"/>
      <point x="351" y="235"/>
    </contour>
  </outline>
</glyph>
<glyph name="c" format="1">
  <advance width="791"/>
  <unicode hex="0063"/>
  <outline>
    <contour>
      <point x="85" y="479" type="line" smooth="yes"/>
      <point x="85" y="272"/>
      <point x="265" y="-20"/>
      <point x="447" y="-20" type="qcurve" smooth="yes"/>
      <point x="606" y="-20"/>
      <point x="755" y="180"/>
      <point x="755" y="305" type="qcurve" smooth="yes"/>
      <point x="755" y="342" type="line"/>
      <point x="579" y="342" type="line"/>
      <point x="579" y="317" type="line" smooth="yes"/>
      <point x="579" y="224"/>
      <point x="510" y="132"/>
      <point x="446" y="132" type="qcurve" smooth="yes"/>
      <point x="358" y="132"/>
      <point x="277" y="326"/>
      <point x="277" y="489" type="qcurve" smooth="yes"/>
      <point x="277" y="578" type="line" smooth="yes"/>
      <point x="277" y="758"/>
      <point x="358" y="920"/>
      <point x="443" y="920" type="qcurve" smooth="yes"/>
      <point x="517" y="920"/>
      <point x="579" y="789"/>
      <point x="579" y="703" type="qcurve" smooth="yes"/>
      <point x="579" y="680" type="line"/>
      <point x="755" y="680" type="line"/>
      <point x="755" y="723" type="line" smooth="yes"/>
      <point x="755" y="862"/>
      <point x="614" y="1072"/>
      <point x="445" y="1072" type="qcurve" smooth="yes"/>
      <point x="261" y="1072"/>
      <point x="85" y="776"/>
      <point x="85" y="590" type="qcurve" smooth="yes"/>
    </contour>
  </outline>
</glyph>
<glyph name="j" format="1">
  <advance width="490"/>
  <unicode hex="006A"/>
  <outline>
    <contour>
      <point x="-22" y="-411" type="line"/>
      <point x="2" y="-423"/>
      <point x="68" y="-436"/>
      <point x="106" y="-436" type="qcurve" smooth="yes"/>
      <point x="209" y="-436"/>
      <point x="332" y="-268"/>
      <point x="332" y="-119" type="qcurve" smooth="yes"/>
      <point x="332" y="1052" type="line"/>
      <point x="146" y="1052" type="line"/>
      <point x="146" y="-158" type="line" smooth="yes"/>
      <point x="146" y="-220"/>
      <point x="105" y="-280"/>
      <point x="69" y="-280" type="qcurve" smooth="yes"/>
      <point x="40" y="-280"/>
      <point x="-5" y="-269"/>
      <point x="-22" y="-261" type="qcurve"/>
    </contour>
    <contour>
      <point x="127" y="1369" type="qcurve" smooth="yes"/>
      <point x="127" y="1326"/>
      <point x="183" y="1265"/>
      <point x="236" y="1265" type="qcurve" smooth="yes"/>
      <point x="290" y="1265"/>
      <point x="346" y="1326"/>
      <point x="346" y="1369" type="qcurve" smooth="yes"/>
      <point x="346" y="1414"/>
      <point x="290" y="1476"/>
      <point x="236" y="1476" type="qcurve" smooth="yes"/>
      <point x="183" y="1476"/>
      <point x="127" y="1414"/>
    </contour>
  </outline>
</glyph>
<glyph name="q" format="1">
  <advance width="908"/>
  <unicode hex="0071"/>
  <outline>
    <contour>
      <point x="85" y="480" type="line" smooth="yes"/>
      <point x="85" y="272"/>
      <point x="257" y="-12"/>
      <point x="401" y="-12" type="qcurve" smooth="yes"/>
      <point x="471" y="-12"/>
      <point x="564" y="65"/>
      <point x="584" y="102" type="qcurve"/>
      <point x="584" y="-416" type="line"/>
      <point x="770" y="-416" type="line"/>
      <point x="770" y="1052" type="line"/>
      <point x="596" y="1052" type="line"/>
      <point x="596" y="955" type="line"/>
      <point x="583" y="1001"/>
      <point x="492" y="1067"/>
      <point x="416" y="1067" type="qcurve" smooth="yes"/>
      <point x="253" y="1067"/>
      <point x="85" y="753"/>
      <point x="85" y="578" type="qcurve" smooth="yes"/>
    </contour>
    <contour>
      <point x="278" y="479" type="qcurve" smooth="yes"/>
      <point x="278" y="578" type="line" smooth="yes"/>
      <point x="278" y="715"/>
      <point x="366" y="916"/>
      <point x="439" y="916" type="qcurve" smooth="yes"/>
      <point x="500" y="916"/>
      <point x="575" y="831"/>
      <point x="584" y="781" type="qcurve"/>
      <point x="584" y="281" type="line"/>
      <point x="572" y="220"/>
      <point x="498" y="136"/>
      <point x="431" y="136" type="qcurve" smooth="yes"/>
      <point x="358" y="136"/>
      <point x="278" y="322"/>
    </contour>
  </outline>
</glyph>
<glyph name="v" format="1">
  <advance width="677"/>
  <unicode hex="0076"/>
  <outline>
    <contour>
      <point x="0" y="1052" type="line"/>
      <point x="266" y="0" type="line"/>
      <point x="414" y="0" type="line"/>
      <point x="677" y="1052" type="line"/>
      <point x="505" y="1052" type="line"/>
      <point x="398" y="624" type="line" smooth="yes"/>
      <point x="378" y="546"/>
      <point x="347" y="370"/>
      <point x="341" y="282" type="qcurve"/>
      <point x="337" y="282" type="line"/>
      <point x="331" y="370"/>
      <point x="297" y="546"/>
      <point x="278" y="625" type="qcurve" smooth="yes"/>
      <point x="175" y="1052" type="line"/>
    </contour>
  </outline>
</glyph>
<glyph name="braceright" format="1">
  <advance width="560"/>
  <unicode hex="007D"/>
  <outline>
    <contour>
      <point x="352" y="315" type="line" smooth="yes"/>
      <point x="331" y="447"/>
      <point x="409" y="513"/>
      <point x="496" y="513" type="qcurve"/>
      <point x="496" y="645" type="line"/>
      <point x="409" y="645"/>
      <point x="330" y="711"/>
      <point x="352" y="843" type="qcurve" smooth="yes"/>
      <point x="386" y="1045" type="line" smooth="yes"/>
      <point x="407" y="1173"/>
      <point x="216" y="1460"/>
      <point x="22" y="1460" type="qcurve"/>
      <point x="22" y="1315" type="line"/>
      <point x="124" y="1315"/>
      <point x="222" y="1152"/>
      <point x="202" y="1035" type="qcurve" smooth="yes"/>
      <point x="164" y="803" type="line" smooth="yes"/>
      <point x="154" y="745"/>
      <point x="204" y="609"/>
      <point x="275" y="579" type="qcurve"/>
      <point x="205" y="554"/>
      <point x="154" y="413"/>
      <point x="164" y="355" type="qcurve" smooth="yes"/>
      <point x="197" y="143" type="line" smooth="yes"/>
      <point x="220" y="-5"/>
      <point x="124" y="-166"/>
      <point x="22" y="-166" type="qcurve"/>
      <point x="22" y="-312" type="line"/>
      <point x="216" y="-312"/>
      <point x="406" y="-25"/>
      <point x="386" y="103" type="qcurve" smooth="yes"/>
    </contour>
  </outline>
</glyph>
<glyph name="asciitilde" format="1">
  <advance width="863"/>
  <unicode hex="007E"/>
  <outline>
    <contour>
      <point x="458" y="717" type="qcurve" smooth="yes"/>
      <point x="423" y="762"/>
      <point x="346" y="807"/>
      <point x="266" y="807" type="qcurve" smooth="yes"/>
      <point x="148" y="807"/>
      <point x="20" y="575"/>
      <point x="20" y="436" type="qcurve"/>
      <point x="206" y="436" type="line"/>
      <point x="206" y="549"/>
      <point x="239" y="630"/>
      <point x="255" y="630" type="qcurve" smooth="yes"/>
      <point x="274" y="630"/>
      <point x="329" y="581"/>
      <point x="372" y="529" type="qcurve" smooth="yes"/>
      <point x="410" y="482"/>
      <point x="487" y="432"/>
      <point x="567" y="432" type="qcurve" smooth="yes"/>
      <point x="685" y="432"/>
      <point x="814" y="664"/>
      <point x="814" y="803" type="qcurve"/>
      <point x="627" y="803" type="line"/>
      <point x="627" y="690"/>
      <point x="594" y="611"/>
      <point x="578" y="611" type="qcurve" smooth="yes"/>
      <point x="559" y="611"/>
      <point x="507" y="654"/>
    </contour>
  </outline>
</glyph>
<glyph name="dieresis" format="1">
  <advance width="870"/>
  <unicode hex="00A8"/>
  <outline>
    <contour>
      <point x="187" y="1255" type="qcurve" smooth="yes"/>
      <point x="187" y="1225"/>
      <point x="233" y="1146"/>
      <point x="292" y="1146" type="qcurve" smooth="yes"/>
      <point x="352" y="1146"/>
      <point x="399" y="1225"/>
      <point x="399" y="1255" type="qcurve" smooth="yes"/>
      <point x="399" y="1285"/>
      <point x="352" y="1368"/>
      <point x="292" y="1368" type="qcurve" smooth="yes"/>
      <point x="233" y="1368"/>
      <point x="187" y="1285"/>
    </contour>
    <contour>
      <point x="471" y="1253" type="qcurve" smooth="yes"/>
      <point x="471" y="1223"/>
      <point x="517" y="1144"/>
      <point x="577" y="1144" type="qcurve" smooth="yes"/>
      <point x="636" y="1144"/>
      <point x="683" y="1223"/>
      <point x="683" y="1253" type="qcurve" smooth="yes"/>
      <point x="683" y="1284"/>
      <point x="636" y="1366"/>
      <point x="577" y="1366" type="qcurve" smooth="yes"/>
      <point x="517" y="1366"/>
      <point x="471" y="1283"/>
    </contour>
  </outline>
</glyph>
<glyph name="copyright" format="1">
  <advance width="1302"/>
  <unicode hex="00A9"/>
  <outline>
    <contour>
      <point x="262" y="699" type="qcurve" smooth="yes"/>
      <point x="262" y="974"/>
      <point x="486" y="1331"/>
      <point x="652" y="1331" type="qcurve" smooth="yes"/>
      <point x="808" y="1331"/>
      <point x="1039" y="963"/>
      <point x="1039" y="699" type="qcurve" smooth="yes"/>
      <point x="1039" y="410"/>
      <point x="817" y="64"/>
      <point x="652" y="64" type="qcurve" smooth="yes"/>
      <point x="494" y="64"/>
      <point x="262" y="434"/>
    </contour>
    <contour>
      <point x="94" y="699" type="qcurve" smooth="yes"/>
      <point x="94" y="376"/>
      <point x="422" y="-82"/>
      <point x="652" y="-82" type="qcurve" smooth="yes"/>
      <point x="888" y="-82"/>
      <point x="1208" y="370"/>
      <point x="1208" y="699" type="qcurve" smooth="yes"/>
      <point x="1208" y="1020"/>
      <point x="881" y="1479"/>
      <point x="652" y="1479" type="qcurve" smooth="yes"/>
      <point x="422" y="1479"/>
      <point x="94" y="1020"/>
    </contour>
    <contour>
      <point x="338" y="669" type="line" smooth="yes"/>
      <point x="338" y="495"/>
      <point x="512" y="252"/>
      <point x="651" y="252" type="qcurve" smooth="yes"/>
      <point x="788" y="252"/>
      <point x="936" y="435"/>
      <point x="939" y="576" type="qcurve" smooth="yes"/>
      <point x="939" y="580" type="line"/>
      <point x="771" y="580" type="line"/>
      <point x="767" y="521" type="line" smooth="yes"/>
      <point x="764" y="455"/>
      <point x="697" y="402"/>
      <point x="652" y="402" type="qcurve" smooth="yes"/>
      <point x="598" y="402"/>
      <point x="522" y="536"/>
      <point x="522" y="669" type="qcurve" smooth="yes"/>
      <point x="522" y="758" type="line" smooth="yes"/>
      <point x="522" y="906"/>
      <point x="599" y="1027"/>
      <point x="653" y="1027" type="qcurve" smooth="yes"/>
      <point x="707" y="1027"/>
      <point x="769" y="954"/>
      <point x="769" y="872" type="qcurve" smooth="yes"/>
      <point x="769" y="832" type="line"/>
      <point x="939" y="832" type="line"/>
      <point x="939" y="843" type="line" smooth="yes"/>
      <point x="937" y="991"/>
      <point x="791" y="1174"/>
      <point x="649" y="1174" type="qcurve" smooth="yes"/>
      <point x="509" y="1174"/>
      <point x="338" y="934"/>
      <point x="338" y="757" type="qcurve" smooth="yes"/>
    </contour>
  </outline>
</glyph>
<glyph name="logicalnot" format="1">
  <advance width="924"/>
  <unicode hex="00AC"/>
  <outline>
    <contour>
      <point x="137" y="801" type="line"/>
      <point x="137" y="623" type="line"/>
      <point x="629" y="623" type="line"/>
      <point x="629" y="376" type="line"/>
      <point x="812" y="376" type="line"/>
      <point x="812" y="801" type="line"/>
    </contour>
  </outline>
</glyph>
<glyph name="mu.math" format="1">
  <advance width="925"/>
  <unicode hex="00B5"/>
  <outline>
    <contour>
      <point x="454" y="-21" type="qcurve" smooth="yes"/>
      <point x="535" y="-21"/>
      <point x="626" y="55"/>
      <point x="601" y="-2" type="qcurve"/>
      <point x="601" y="0" type="line"/>
      <point x="777" y="0" type="line"/>
      <point x="777" y="1052" type="line"/>
      <point x="588" y="1052" type="line"/>
      <point x="588" y="261" type="line"/>
      <point x="573" y="207"/>
      <point x="498" y="131"/>
      <point x="449" y="131" type="qcurve" smooth="yes"/>
      <point x="413" y="131"/>
      <point x="337" y="241"/>
      <point x="337" y="460" type="qcurve" smooth="yes"/>
      <point x="337" y="1052" type="line"/>
      <point x="148" y="1052" type="line"/>
      <point x="148" y="-416" type="line"/>
      <point x="333" y="-416" type="line"/>
      <point x="299" y="53" type="line"/>
      <point x="303" y="16"/>
      <point x="385" y="-21"/>
    </contour>
  </outline>
</glyph>
<glyph name="multiply" format="1">
  <advance width="913"/>
  <unicode hex="00D7"/>
  <outline>
    <contour>
      <point x="137" y="325" type="line"/>
      <point x="235" y="171" type="line"/>
      <point x="773" y="1002" type="line"/>
      <point x="675" y="1157" type="line"/>
    </contour>
    <contour>
      <point x="138" y="1003" type="line"/>
      <point x="676" y="172" type="line"/>
      <point x="776" y="328" type="line"/>
      <point x="237" y="1160" type="line"/>
    </contour>
  </outline>
</glyph>
<glyph name="oslash" format="1">
  <advance width="892"/>
  <unicode hex="00F8"/>
  <outline>
    <contour>
      <point x="85" y="509" type="line" smooth="yes"/>
      <point x="85" y="288"/>
      <point x="273" y="-30"/>
      <point x="447" y="-30" type="qcurve" smooth="yes"/>
      <point x="620" y="-30"/>
      <point x="807" y="288"/>
      <point x="807" y="509" type="qcurve" smooth="yes"/>
      <point x="807" y="542" type="line" smooth="yes"/>
      <point x="807" y="770"/>
      <point x="624" y="1082"/>
      <point x="446" y="1082" type="qcurve" smooth="yes"/>
      <point x="273" y="1082"/>
      <point x="85" y="763"/>
      <point x="85" y="542" type="qcurve" smooth="yes"/>
    </contour>
    <contour>
      <point x="278" y="542" type="line" smooth="yes"/>
      <point x="278" y="723"/>
      <point x="371" y="930"/>
      <point x="446" y="930" type="qcurve" smooth="yes"/>
      <point x="522" y="930"/>
      <point x="615" y="723"/>
      <point x="615" y="542" type="qcurve" smooth="yes"/>
      <point x="615" y="509" type="line" smooth="yes"/>
      <point x="615" y="326"/>
      <point x="522" y="122"/>
      <point x="447" y="122" type="qcurve" smooth="yes"/>
      <point x="371" y="122"/>
      <point x="278" y="326"/>
      <point x="278" y="509" type="qcurve" smooth="yes"/>
    </contour>
    <contour>
      <point x="508" y="511" type="line"/>
      <point x="388" y="600" type="line"/>
      <point x="230" y="139" type="line"/>
      <point x="216" y="116" type="line"/>
      <point x="134" y="-124" type="line"/>
      <point x="294" y="-124" type="line"/>
      <point x="370" y="97" type="line"/>
      <point x="370" y="119" type="line"/>
    </contour>
    <contour>
      <point x="749" y="1201" type="line"/>
      <point x="589" y="1201" type="line"/>
      <point x="507" y="962" type="line"/>
      <point x="507" y="942" type="line"/>
      <point x="379" y="573" type="line"/>
      <point x="499" y="484" type="line"/>
      <point x="645" y="913" type="line"/>
      <point x="659" y="935" type="line"/>
    </contour>
  </outline>
</glyph>
<glyph name="thorn" format="1">
  <advance width="917"/>
  <unicode hex="00FE"/>
  <outline>
    <contour>
      <point x="148" y="-416" type="line"/>
      <point x="337" y="-416" type="line"/>
      <point x="304" y="140" type="line"/>
      <point x="313" y="64"/>
      <point x="424" y="-15"/>
      <point x="521" y="-15" type="qcurve" smooth="yes"/>
      <point x="678" y="-15"/>
      <point x="832" y="313"/>
      <point x="832" y="529" type="qcurve" smooth="yes"/>
      <point x="832" y="550" type="line" smooth="yes"/>
      <point x="832" y="771"/>
      <point x="678" y="1082"/>
      <point x="520" y="1082" type="qcurve" smooth="yes"/>
      <point x="425" y="1082"/>
      <point x="314" y="1002"/>
      <point x="338" y="1052" type="qcurve"/>
      <point x="338" y="1536" type="line"/>
      <point x="148" y="1536" type="line"/>
    </contour>
    <contour>
      <point x="338" y="324" type="qcurve"/>
      <point x="338" y="757" type="line"/>
      <point x="353" y="819"/>
      <point x="437" y="926"/>
      <point x="489" y="926" type="qcurve" smooth="yes"/>
      <point x="567" y="926"/>
      <point x="642" y="724"/>
      <point x="642" y="550" type="qcurve" smooth="yes"/>
      <point x="642" y="529" type="line" smooth="yes"/>
      <point x="642" y="351"/>
      <point x="563" y="142"/>
      <point x="491" y="142" type="qcurve" smooth="yes"/>
      <point x="439" y="142"/>
      <point x="355" y="255"/>
    </contour>
  </outline>
</glyph>
<glyph name="Germandbls" format="1">
  <advance width="1054"/>
  <unicode hex="1E9E"/>
  <outline>
    <contour>
      <point x="944" y="390" type="qcurve" smooth="yes"/>
      <point x="944" y="449" type="line" smooth="yes"/>
      <point x="944" y="582"/>
      <point x="785" y="782"/>
      <point x="682" y="808" type="qcurve"/>
      <point x="682" y="832" type="line"/>
      <point x="879" y="1069" type="line"/>
      <point x="879" y="1071" type="line" smooth="yes"/>
      <point x="879" y="1220"/>
      <point x="723" y="1486"/>
      <point x="548" y="1486" type="qcurve" smooth="yes"/>
      <point x="378" y="1486"/>
      <point x="169" y="1236"/>
      <point x="169" y="1032" type="qcurve" smooth="yes"/>
      <point x="169" y="0" type="line"/>
      <point x="364" y="0" type="line"/>
      <point x="364" y="1044" type="line" smooth="yes"/>
      <point x="364" y="1205"/>
      <point x="464" y="1321"/>
      <point x="542" y="1321" type="qcurve" smooth="yes"/>
      <point x="602" y="1321"/>
      <point x="678" y="1220"/>
      <point x="686" y="1099" type="qcurve"/>
      <point x="479" y="831" type="line"/>
      <point x="508" y="691" type="line"/>
      <point x="650" y="653"/>
      <point x="748" y="537"/>
      <point x="748" y="431" type="qcurve" smooth="yes"/>
      <point x="748" y="378" type="line" smooth="yes"/>
      <point x="748" y="260"/>
      <point x="639" y="138"/>
      <point x="556" y="138" type="qcurve"/>
      <point x="557" y="138"/>
      <point x="492" y="144"/>
      <point x="424" y="164" type="qcurve"/>
      <point x="406" y="-8" type="line"/>
      <point x="438" y="-16"/>
      <point x="515" y="-22"/>
      <point x="564" y="-22" type="qcurve" smooth="yes"/>
      <point x="741" y="-22"/>
      <point x="944" y="215"/>
    </contour>
  </outline>
</glyph>
<glyph name="emdash" format="1">
  <advance width="1177"/>
  <unicode hex="2014"/>
  <outline>
    <contour>
      <point x="80" y="538" type="line"/>
      <point x="1097" y="538" type="line"/>
      <point x="1097" y="710" type="line"/>
      <point x="80" y="710" type="line"/>
    </contour>
  </outline>
</glyph>
<glyph name="quoteleft" format="1">
  <advance width="387"/>
  <unicode hex="2018"/>
  <outline>
    <contour>
      <point x="126" y="1073" type="line"/>
      <point x="313" y="1073" type="line"/>
      <point x="313" y="1197" type="line" smooth="yes"/>
      <point x="313" y="1301"/>
      <point x="350" y="1428"/>
      <point x="374" y="1481" type="qcurve"/>
      <point x="271" y="1581" type="line"/>
      <point x="190" y="1481"/>
      <point x="126" y="1261"/>
      <point x="126" y="1194" type="qcurve" smooth="yes"/>
    </contour>
  </outline>
</glyph>
<glyph name="quotesinglbase" format="1">
  <advance width="388"/>
  <unicode hex="201A"/>
  <outline>
    <contour>
      <point x="95" y="-188" type="qcurve"/>
      <point x="199" y="-288" type="line"/>
      <point x="280" y="-188"/>
      <point x="344" y="32"/>
      <point x="344" y="99" type="qcurve" smooth="yes"/>
      <point x="344" y="220" type="line"/>
      <point x="157" y="220" type="line"/>
      <point x="157" y="96" type="line" smooth="yes"/>
      <point x="157" y="-8"/>
      <point x="120" y="-135"/>
    </contour>
  </outline>
</glyph>
<glyph name="quotedblleft" format="1">
  <advance width="651"/>
  <unicode hex="201C"/>
  <outline>
    <contour>
      <point x="126" y="1073" type="line"/>
      <point x="313" y="1073" type="line"/>
      <point x="313" y="1197" type="line" smooth="yes"/>
      <point x="313" y="1301"/>
      <point x="350" y="1428"/>
      <point x="374" y="1481" type="qcurve"/>
      <point x="271" y="1581" type="line"/>
      <point x="190" y="1481"/>
      <point x="126" y="1261"/>
      <point x="126" y="1194" type="qcurve" smooth="yes"/>
    </contour>
    <contour>
      <point x="390" y="1073" type="line"/>
      <point x="577" y="1073" type="line"/>
      <point x="577" y="1197" type="line" smooth="yes"/>
      <point x="577" y="1301"/>
      <point x="614" y="1428"/>
      <point x="638" y="1481" type="qcurve"/>
      <point x="535" y="1581" type="line"/>
      <point x="454" y="1481"/>
      <point x="390" y="1261"/>
      <point x="390" y="1194" type="qcurve" smooth="yes"/>
    </contour>
  </outline>
</glyph>
<glyph name="guilsinglleft" format="1">
  <advance width="538"/>
  <unicode hex="2039"/>
  <outline>
    <contour>
      <point x="315" y="203" type="line"/>
      <point x="478" y="203" type="line"/>
      <point x="281" y="601" type="line"/>
      <point x="478" y="999" type="line"/>
      <point x="315" y="999" type="line"/>
      <point x="78" y="595" type="line"/>
      <point x="78" y="608" type="line"/>
    </contour>
  </outline>
</glyph>
<glyph name="Euro" format="1">
  <advance width="863"/>
  <unicode hex="20AC"/>
  <outline>
    <contour>
      <point x="673" y="947" type="line"/>
      <point x="25" y="947" type="line"/>
      <point x="25" y="797" type="line"/>
      <point x="673" y="797" type="line"/>
    </contour>
    <contour>
      <point x="673" y="626" type="line"/>
      <point x="25" y="626" type="line"/>
      <point x="25" y="477" type="line"/>
      <point x="673" y="477" type="line"/>
    </contour>
    <contour>
      <point x="510" y="-20" type="qcurve" smooth="yes"/>
      <point x="682" y="-20"/>
      <point x="832" y="235"/>
      <point x="832" y="378" type="qcurve" smooth="yes"/>
      <point x="832" y="393" type="line"/>
      <point x="646" y="393" type="line"/>
      <point x="647" y="376" type="line" smooth="yes"/>
      <point x="652" y="256"/>
      <point x="572" y="139"/>
      <point x="506" y="139" type="qcurve" smooth="yes"/>
      <point x="411" y="139"/>
      <point x="313" y="329"/>
      <point x="313" y="560" type="qcurve" smooth="yes"/>
      <point x="313" y="874" type="line" smooth="yes"/>
      <point x="313" y="1106"/>
      <point x="411" y="1298"/>
      <point x="495" y="1298" type="qcurve" smooth="yes"/>
      <point x="572" y="1298"/>
      <point x="638" y="1184"/>
      <point x="638" y="1057" type="qcurve" smooth="yes"/>
      <point x="638" y="1043" type="line"/>
      <point x="825" y="1043" type="line"/>
      <point x="825" y="1058" type="line" smooth="yes"/>
      <point x="825" y="1200"/>
      <point x="675" y="1455"/>
      <point x="494" y="1455" type="qcurve" smooth="yes"/>
      <point x="310" y="1455"/>
      <point x="125" y="1147"/>
      <point x="125" y="872" type="qcurve" smooth="yes"/>
      <point x="125" y="560" type="line" smooth="yes"/>
      <point x="125" y="287"/>
      <point x="317" y="-20"/>
    </contour>
  </outline>
</glyph>
<glyph name="indianrupee" format="1">
  <advance width="879"/>
  <unicode hex="20B9"/>
  <outline>
    <contour>
      <point x="830" y="1100" type="line"/>
      <point x="127" y="1100" type="line"/>
      <point x="103" y="942" type="line"/>
      <point x="799" y="942" type="line"/>
    </contour>
    <contour>
      <point x="85" y="1298" type="line"/>
      <point x="331" y="1298" type="line" smooth="yes"/>
      <point x="422" y="1298"/>
      <point x="516" y="1162"/>
      <point x="516" y="1021" type="qcurve" smooth="yes"/>
      <point x="516" y="893"/>
      <point x="438" y="762"/>
      <point x="355" y="762" type="qcurve" smooth="yes"/>
      <point x="142" y="762" type="line"/>
      <point x="123" y="616" type="line"/>
      <point x="519" y="0" type="line"/>
      <point x="727" y="0" type="line"/>
      <point x="727" y="-2" type="line"/>
      <point x="332" y="604" type="line"/>
      <point x="523" y="604"/>
      <point x="703" y="849"/>
      <point x="703" y="1019" type="qcurve" smooth="yes"/>
      <point x="703" y="1102"/>
      <point x="654" y="1255"/>
      <point x="616" y="1298" type="qcurve"/>
      <point x="799" y="1298" type="line"/>
      <point x="830" y="1456" type="line"/>
      <point x="117" y="1456" type="line"/>
    </contour>
  </outline>
</glyph>
<glyph name="minus" format="1">
  <advance width="926"/>
  <unicode hex="2212"/>
  <outline>
    <contour>
      <point x="128" y="588" type="line"/>
      <point x="798" y="588" type="line"/>
      <point x="798" y="760" type="line"/>
      <point x="128" y="760" type="line"/>
    </contour>
  </outline>
</glyph>
<glyph name="eight.pnum" format="1">
  <advance width="878"/>
  <outline>
    <contour>
      <point x="90" y="412" type="qcurve" smooth="yes"/>
      <point x="90" y="217"/>
      <point x="280" y="-30"/>
      <point x="439" y="-30" type="qcurve" smooth="yes"/>
      <point x="597" y="-30"/>
      <point x="788" y="217"/>
      <point x="788" y="412" type="qcurve" smooth="yes"/>
      <point x="788" y="527"/>
      <point x="680" y="755"/>
      <point x="602" y="786" type="qcurve"/>
      <point x="602" y="809" type="line"/>
      <point x="656" y="849"/>
      <point x="738" y="1022"/>
      <point x="738" y="1104" type="qcurve" smooth="yes"/>
      <point x="738" y="1268"/>
      <point x="573" y="1477"/>
      <point x="438" y="1477" type="qcurve" smooth="yes"/>
      <point x="304" y="1477"/>
      <point x="140" y="1268"/>
      <point x="140" y="1104" type="qcurve" smooth="yes"/>
      <point x="140" y="1022"/>
      <point x="221" y="850"/>
      <point x="275" y="810" type="qcurve"/>
      <point x="275" y="788" type="line"/>
      <point x="199" y="757"/>
      <point x="90" y="528"/>
    </contour>
    <contour>
      <point x="323" y="1096" type="qcurve" smooth="yes"/>
      <point x="323" y="1213"/>
      <point x="396" y="1323"/>
      <point x="438" y="1323" type="qcurve" smooth="yes"/>
      <point x="482" y="1323"/>
      <point x="555" y="1207"/>
      <point x="555" y="1096" type="qcurve" smooth="yes"/>
      <point x="555" y="981"/>
      <point x="482" y="869"/>
      <point x="439" y="869" type="qcurve" smooth="yes"/>
      <point x="395" y="869"/>
      <point x="323" y="981"/>
    </contour>
    <contour>
      <point x="277" y="424" type="qcurve" smooth="yes"/>
      <point x="277" y="571"/>
      <point x="370" y="714"/>
      <point x="438" y="714" type="qcurve" smooth="yes"/>
      <point x="503" y="714"/>
      <point x="601" y="571"/>
      <point x="601" y="424" type="qcurve" smooth="yes"/>
      <point x="601" y="272"/>
      <point x="503" y="124"/>
      <point x="439" y="124" type="qcurve" smooth="yes"/>
      <point x="375" y="124"/>
      <point x="277" y="272"/>
    </contour>
  </outline>
</glyph>
